<svg width="24" height="24" viewBox="0 0 24 24" fill="none" xmlns="http://www.w3.org/2000/svg">
<g clip-path="url(#clip0_30_627)">
<path d="M6.66667 6.66665C6.84348 6.66665 7.01305 6.59641 7.13807 6.47138C7.2631 6.34636 7.33333 6.17679 7.33333 5.99998V1.99998C7.33333 1.82317 7.2631 1.6536 7.13807 1.52858C7.01305 1.40355 6.84348 1.33331 6.66667 1.33331C6.48986 1.33331 6.32029 1.40355 6.19526 1.52858C6.07024 1.6536 6 1.82317 6 1.99998V5.99998C6 6.17679 6.07024 6.34636 6.19526 6.47138C6.32029 6.59641 6.48986 6.66665 6.66667 6.66665Z" fill="#4D8AE8"/>
<path d="M20 9.00002C18.6739 9.00002 17.4021 8.47323 16.4644 7.53555C15.5268 6.59787 15 5.3261 15 4.00002H8.1333V6.00002C8.1333 6.389 7.97878 6.76205 7.70372 7.03711C7.42867 7.31216 7.05562 7.46668 6.66664 7.46668C6.27765 7.46668 5.9046 7.31216 5.62955 7.03711C5.35449 6.76205 5.19997 6.389 5.19997 6.00002V4.00002H2.5333C2.37465 3.99821 2.21725 4.02824 2.0704 4.08832C1.92356 4.14841 1.79026 4.23733 1.67838 4.34983C1.5665 4.46233 1.47831 4.59613 1.41904 4.7433C1.35977 4.89048 1.33062 5.04804 1.3333 5.20668V20.1267C1.33065 20.2825 1.35873 20.4374 1.41593 20.5823C1.47313 20.7273 1.55834 20.8596 1.66668 20.9717C1.77501 21.0837 1.90437 21.1734 2.04735 21.2354C2.19032 21.2975 2.34413 21.3307 2.49997 21.3333H21.5C21.6558 21.3307 21.8096 21.2975 21.9526 21.2354C22.0956 21.1734 22.2249 21.0837 22.3333 20.9717C22.4416 20.8596 22.5268 20.7273 22.584 20.5823C22.6412 20.4374 22.6693 20.2825 22.6666 20.1267V8.22668C21.8693 8.73273 20.9443 9.00099 20 9.00002V9.00002ZM6.66664 17.3333H5.3333V16H6.66664V17.3333ZM6.66664 14H5.3333V12.6667H6.66664V14ZM6.66664 10.6667H5.3333V9.33335H6.66664V10.6667ZM10.6666 17.3333H9.3333V16H10.6666V17.3333ZM10.6666 14H9.3333V12.6667H10.6666V14ZM10.6666 10.6667H9.3333V9.33335H10.6666V10.6667ZM14.6666 17.3333H13.3333V16H14.6666V17.3333ZM14.6666 14H13.3333V12.6667H14.6666V14ZM14.6666 10.6667H13.3333V9.33335H14.6666V10.6667ZM18.6666 17.3333H17.3333V16H18.6666V17.3333ZM18.6666 14H17.3333V12.6667H18.6666V14ZM18.6666 10.6667H17.3333V9.33335H18.6666V10.6667Z" fill="#4D8AE8"/>
<path d="M20 7.33335C21.8409 7.33335 23.3333 5.84097 23.3333 4.00002C23.3333 2.15907 21.8409 0.666687 20 0.666687C18.159 0.666687 16.6666 2.15907 16.6666 4.00002C16.6666 5.84097 18.159 7.33335 20 7.33335Z" fill="#4D8AE8"/>
</g>
<defs>
<clipPath id="clip0_30_627">
<rect width="24" height="24" fill="white"/>
</clipPath>
</defs>
</svg>
