<svg width="24" height="24" viewBox="0 0 24 24" fill="none" xmlns="http://www.w3.org/2000/svg">
<path d="M4.64394 4.79999H20.5439C22.0439 4.79999 22.7999 5.50799 22.7999 6.94799V17.052C22.7999 18.48 22.0439 19.2 20.5439 19.2H4.64394C3.14394 19.2 2.38794 18.48 2.38794 17.052V6.94799C2.38794 5.50799 3.14394 4.79999 4.64394 4.79999ZM12.5879 15.12L20.6759 8.48399C20.9639 8.24399 21.1919 7.69199 20.8319 7.19999C20.4839 6.70799 19.8479 6.69599 19.4279 6.99599L12.5879 11.628L5.75994 6.99599C5.33994 6.69599 4.70394 6.70799 4.35594 7.19999C3.99594 7.69199 4.22394 8.24399 4.51194 8.48399L12.5879 15.12Z" fill="#4D8AE8"/>
</svg>
