<svg width="32" height="32" viewBox="0 0 32 32" fill="none" xmlns="http://www.w3.org/2000/svg">
<path d="M3.95502 12.625C3.78638 12.6265 3.62034 12.5834 3.47377 12.5C3.36626 12.4396 3.27188 12.3583 3.19615 12.261C3.12043 12.1636 3.06488 12.0521 3.03275 11.9331C3.00063 11.814 2.99257 11.6897 3.00906 11.5675C3.02554 11.4453 3.06624 11.3276 3.12877 11.2212C4.33377 9.21 8.00002 4.51562 16 4.51562C19.4669 4.51562 22.5075 5.42625 25.0331 7.22125C27.1119 8.69438 28.2769 10.3619 28.8319 11.165C28.9023 11.2662 28.9517 11.3805 28.9773 11.5011C29.0028 11.6218 29.004 11.7463 28.9807 11.8674C28.9574 11.9884 28.9101 12.1036 28.8416 12.2062C28.7731 12.3087 28.6848 12.3965 28.5819 12.4644C28.3715 12.6034 28.1153 12.6551 27.8675 12.6084C27.6197 12.5618 27.3998 12.4204 27.2544 12.2144C26.25 10.77 23.1875 6.375 16 6.375C8.98439 6.375 5.81252 10.4194 4.77939 12.1538C4.69638 12.2986 4.5762 12.4186 4.43128 12.5015C4.28635 12.5843 4.12194 12.627 3.95502 12.625Z" fill="#0361F0"/>
<path d="M20.0305 30.9996C19.9507 31.0005 19.8712 30.9915 19.7936 30.9727C13.9905 29.5352 11.8236 23.7339 11.7355 23.4927L11.7218 23.4396C11.6743 23.2721 10.5099 19.2939 12.2974 16.9639C13.1168 15.9014 14.363 15.3564 16.0086 15.3564C17.5386 15.3564 18.6424 15.8321 19.4011 16.8164C20.0261 17.6202 20.2761 18.6114 20.518 19.5664C21.0261 21.5552 21.393 22.5996 23.5049 22.7071C24.4324 22.7539 25.0418 22.2114 25.3874 21.7496C26.3218 20.4902 26.4843 18.4371 25.7799 16.6246C24.8749 14.2852 21.663 9.87456 15.9999 9.87456C13.5824 9.87456 11.3611 10.6514 9.57989 12.1114C8.10552 13.3208 6.93739 15.0283 6.37489 16.7833C5.33177 20.0508 6.69989 25.1871 6.71302 25.2339C6.74496 25.3535 6.75265 25.4782 6.73562 25.6008C6.7186 25.7233 6.67721 25.8412 6.61389 25.9475C6.55057 26.0538 6.46661 26.1464 6.36696 26.2197C6.2673 26.2931 6.15397 26.3457 6.03364 26.3746C5.79056 26.4392 5.53182 26.4061 5.31289 26.2822C5.09395 26.1584 4.93223 25.9537 4.86239 25.7121C4.79989 25.4777 3.33864 19.9996 4.54364 16.2233C5.85614 12.1314 9.90677 8.00644 16.0018 8.00644C18.8186 8.00644 21.4799 8.96394 23.7011 10.7721C25.4211 12.1783 26.8261 14.0671 27.5611 15.9552C28.4955 18.3658 28.2449 21.0714 26.9243 22.8389C26.0443 24.0177 24.7911 24.6339 23.403 24.5671C19.7868 24.3858 19.1368 21.8614 18.663 20.0202C18.1755 18.1314 17.8636 17.2208 16.0018 17.2208C14.9793 17.2208 14.2611 17.5021 13.8143 18.0846C13.2049 18.8814 13.1574 20.1271 13.2249 21.0308C13.2692 21.6605 13.376 22.2842 13.5436 22.8927C13.6924 23.2677 15.6293 28.0177 20.268 29.1671C20.3879 29.1955 20.501 29.2474 20.6006 29.3199C20.7003 29.3924 20.7845 29.4839 20.8485 29.5892C20.9125 29.6945 20.9549 29.8115 20.9732 29.9333C20.9916 30.0552 20.9856 30.1794 20.9555 30.2989C20.8989 30.5007 20.7779 30.6783 20.6109 30.8048C20.4438 30.9313 20.24 30.9997 20.0305 30.9996Z" fill="#0361F0"/>
<path d="M12.5818 30.5712C12.4517 30.5715 12.3229 30.5455 12.2031 30.495C12.0833 30.4444 11.9748 30.3702 11.8843 30.2768C9.5618 27.8393 8.24805 25.1137 7.75368 21.7056V21.6874C7.47618 19.4312 7.88243 16.2368 9.87305 14.0406C11.3424 12.4199 13.4081 11.5962 16.0018 11.5962C19.0693 11.5962 21.4799 13.0224 22.9831 15.7143C24.0737 17.6699 24.2899 19.6187 24.2956 19.6987C24.307 19.822 24.294 19.9464 24.2573 20.0647C24.2206 20.1831 24.1609 20.293 24.0816 20.3882C24.0024 20.4834 23.9051 20.562 23.7954 20.6196C23.6858 20.6772 23.5658 20.7125 23.4424 20.7237C23.1935 20.7507 22.9439 20.6787 22.7476 20.5233C22.5513 20.3679 22.4239 20.1416 22.3931 19.8931C22.2284 18.7238 21.85 17.5948 21.2768 16.5624C20.1118 14.5068 18.3393 13.4618 15.9949 13.4618C13.9699 13.4618 12.3856 14.0712 11.2956 15.2743C9.7243 17.0087 9.42055 19.6806 9.63618 21.4481C10.0693 24.4618 11.2274 26.8593 13.2724 29.0018C13.3578 29.0906 13.4244 29.1957 13.4684 29.3107C13.5123 29.4258 13.5327 29.5485 13.5282 29.6716C13.5238 29.7947 13.4947 29.9156 13.4426 30.0272C13.3905 30.1388 13.3164 30.2388 13.2249 30.3212C13.0487 30.4809 12.8197 30.57 12.5818 30.5712Z" fill="#0361F0"/>
<path d="M23.2812 27.8869C21.25 27.8869 19.5231 27.3244 18.1412 26.2063C15.365 23.9694 15.0537 20.3262 15.04 20.1725C15.0204 19.9201 15.1019 19.6703 15.2665 19.478C15.4311 19.2857 15.6654 19.1667 15.9178 19.1472C16.1701 19.1276 16.42 19.2091 16.6122 19.3737C16.8045 19.5384 16.9235 19.7726 16.9431 20.025C16.95 20.0787 17.2275 23.0587 19.3675 24.775C20.6337 25.7863 22.3262 26.1875 24.4118 25.9531C24.6611 25.9229 24.9122 25.9926 25.1103 26.1469C25.3083 26.3013 25.4372 26.5278 25.4687 26.7769C25.4824 26.8999 25.4714 27.0245 25.4364 27.1432C25.4014 27.262 25.3431 27.3726 25.2649 27.4686C25.1867 27.5646 25.0902 27.6441 24.981 27.7024C24.8717 27.7606 24.752 27.7966 24.6287 27.8081C24.1814 27.8603 23.7315 27.8866 23.2812 27.8869Z" fill="#0361F0"/>
<path d="M24.8863 3.04938C24.0938 2.53375 21.2838 1 16 1C10.4538 1 7.63689 2.69438 7.01377 3.125C6.97262 3.15026 6.93409 3.17957 6.89877 3.2125C6.89504 3.21611 6.89019 3.21831 6.88502 3.21875C6.78551 3.30563 6.70567 3.41272 6.65082 3.53289C6.59596 3.65305 6.56735 3.78353 6.56689 3.91563C6.5686 4.03945 6.59473 4.16172 6.64378 4.27543C6.69282 4.38914 6.76383 4.49205 6.85272 4.57827C6.94161 4.66449 7.04664 4.73232 7.16179 4.77788C7.27694 4.82343 7.39995 4.84582 7.52377 4.84375C7.72223 4.84362 7.9159 4.78277 8.07877 4.66937C8.10564 4.64937 10.53 2.86812 16.0019 2.86812C21.4738 2.86812 23.9113 4.64313 23.9375 4.65625C24.1039 4.77964 24.306 4.84547 24.5131 4.84375C24.6371 4.84565 24.7601 4.82306 24.8753 4.77727C24.9905 4.73149 25.0955 4.6634 25.1843 4.57694C25.2731 4.49047 25.3439 4.38732 25.3927 4.2734C25.4415 4.15949 25.4674 4.03705 25.4688 3.91313C25.4688 3.72749 25.4134 3.54608 25.3096 3.39217C25.2058 3.23827 25.0584 3.11889 24.8863 3.04938Z" fill="#0361F0"/>
</svg>
