<svg width="18" height="22" viewBox="0 0 18 22" fill="none" xmlns="http://www.w3.org/2000/svg">
<g clip-path="url(#clip0_30_787)">
<path d="M18 17.8734C18 18.8953 17.707 19.7719 17.1211 20.5031C16.5352 21.2344 15.8297 21.6 15.0047 21.6H2.99531C2.17031 21.6 1.46484 21.2344 0.878906 20.5031C0.292969 19.7719 0 18.8953 0 17.8734C0 17.0766 0.0398438 16.3242 0.119531 15.6164C0.199219 14.9086 0.346875 14.1961 0.5625 13.4789C0.778125 12.7617 1.05234 12.1477 1.38516 11.6367C1.71797 11.1258 2.15859 10.7086 2.70703 10.3852C3.25547 10.0617 3.88594 9.9 4.59844 9.9C5.82656 11.1 7.29375 11.7 9 11.7C10.7062 11.7 12.1734 11.1 13.4016 9.9C14.1141 9.9 14.7445 10.0617 15.293 10.3852C15.8414 10.7086 16.282 11.1258 16.6148 11.6367C16.9477 12.1477 17.2219 12.7617 17.4375 13.4789C17.6531 14.1961 17.8008 14.9086 17.8805 15.6164C17.9602 16.3242 18 17.0766 18 17.8734ZM14.4 5.4C14.4 6.89062 13.8727 8.16328 12.818 9.21797C11.7633 10.2727 10.4906 10.8 9 10.8C7.50937 10.8 6.23672 10.2727 5.18203 9.21797C4.12734 8.16328 3.6 6.89062 3.6 5.4C3.6 3.90937 4.12734 2.63672 5.18203 1.58203C6.23672 0.527344 7.50937 0 9 0C10.4906 0 11.7633 0.527344 12.818 1.58203C13.8727 2.63672 14.4 3.90937 14.4 5.4Z" fill="#4D8AE8"/>
</g>
<defs>
<clipPath id="clip0_30_787">
<rect width="18" height="21.6" fill="white"/>
</clipPath>
</defs>
</svg>
