<svg width="82" height="95" viewBox="0 0 82 95" fill="none" xmlns="http://www.w3.org/2000/svg">
<path d="M46.7578 57.1484C46.7932 57.2545 47.0141 57.2456 47.4205 57.1219C47.8269 56.9982 48.3836 56.795 49.0904 56.5123L50.1507 56.0352C51.7057 55.3283 53.2431 54.4624 54.7629 53.4375C55.0102 53.2608 55.7348 52.7041 56.9364 51.7676C58.138 50.831 58.8095 50.3274 58.9509 50.2567C61.3188 53.8969 63.6868 57.0954 66.0547 59.8521C68.9174 63.2096 70.7729 65.1535 71.6211 65.6836C71.7625 65.7543 72.1071 65.825 72.6549 65.8956C73.2027 65.9663 73.5296 65.9663 73.6356 65.8956C73.4236 65.7543 71.9745 64.1285 69.2885 61.0184C68.5463 60.1702 67.0355 58.138 64.7559 54.9219C62.4763 51.7057 61.0891 49.6205 60.5943 48.6663C59.9935 47.606 59.0923 45.8654 57.8906 43.4445C56.689 41.0235 56.0528 39.654 55.9822 39.3359C56.2649 39.3006 58.2087 39.8837 61.8136 41.0854C62.0964 41.1561 62.5823 41.2886 63.2715 41.483C63.9607 41.6774 64.5703 41.8452 65.1005 41.9866C65.6306 42.128 65.931 42.2163 66.0017 42.2517C66.0724 42.3224 66.1077 42.5079 66.1077 42.8083C66.1077 43.1087 66.1254 43.2766 66.1607 43.3119C66.3374 43.6654 66.8852 43.9304 67.8041 44.1071C68.617 44.3545 69.4476 44.3545 70.2958 44.1071C70.9319 43.9658 71.4267 43.5947 71.7802 42.9939C71.9215 42.7818 72.0099 42.3754 72.0452 41.7746C71.8332 41.7039 71.4002 41.6155 70.7464 41.5095C70.0926 41.4035 69.5713 41.2974 69.1825 41.1914C67.1326 40.6259 65.2772 40.0605 63.6161 39.495C60.0819 38.258 58.2794 37.6395 58.2087 37.6395C57.8553 37.5688 57.0954 37.2242 55.9291 36.6057C54.7629 35.9873 53.9853 35.6073 53.5966 35.466C53.2785 35.3599 52.8985 35.2186 52.4568 35.0419C52.015 34.8651 51.7588 34.7679 51.6881 34.7503C51.6174 34.7326 51.5114 34.7414 51.37 34.7768C51.2993 35.2009 51.317 35.784 51.423 36.5262C51.423 36.5969 51.6439 37.074 52.0857 37.9576C52.5275 38.8411 52.9957 39.7866 53.4905 40.7938C53.9853 41.8011 54.2857 42.393 54.3918 42.5698C55.2753 44.3369 56.636 46.6518 58.4738 49.5145L55.0809 50.9989C54.6568 51.2109 53.3403 51.7764 51.1314 52.6953C48.9225 53.6142 47.7297 54.109 47.553 54.1797C47.4117 54.215 47.2261 54.6656 46.9964 55.5315C46.7667 56.3974 46.6871 56.9364 46.7578 57.1484ZM57.6256 31.3839C57.5195 31.9141 57.5902 32.4089 57.8376 32.8683C58.2617 33.6812 59.1453 34.3527 60.4883 34.8828C61.5486 35.3069 62.6088 35.519 63.6691 35.519C64.588 35.4129 65.4539 34.9535 66.2668 34.1406C66.7615 33.6105 67.0796 32.886 67.221 31.9671L67.168 31.808C67.062 31.9141 66.7174 32.0024 66.1342 32.0731C65.5511 32.1438 65.0828 32.1438 64.7294 32.0731C64.3759 32.0024 63.351 31.7197 61.6546 31.2249C60.3823 30.8008 59.4104 30.5534 58.7389 30.4827C58.138 30.4827 57.7669 30.7831 57.6256 31.3839ZM20.6222 38.2227L17.2824 50.2567L24.6512 48.0301L20.6222 38.2227ZM79.3611 80.6334L42.5698 68.3343V13.6244L79.3611 25.9766V80.6334ZM13.5714 63.8281L8.16408 65.4715L17.7595 30.6417L23.0608 28.9983L34.5117 57.4135L29.1044 59.0569L26.7188 53.2254L15.5329 56.6713L13.5714 63.8281ZM40.2372 12.8292L9.8605 22.5837V2.43862L40.2372 12.8292ZM23.75 82.966L15.3739 83.6551L18.2366 92.1373L20.3572 88.6384C24.9517 91.5718 29.8289 93.4803 34.9889 94.3638C37.0387 94.7879 38.6468 95 39.8131 95H44.2662C47.0582 95 50.5836 94.3108 54.8424 92.9325C59.1011 91.5541 62.3438 90.0521 64.5703 88.4263C64.8531 88.1789 64.9944 87.8962 64.9944 87.5781C64.9944 87.2954 64.9061 87.0568 64.7294 86.8624C64.5527 86.6681 64.3229 86.5709 64.0402 86.5709C63.8988 86.5709 63.5807 86.7034 63.086 86.9685C62.5912 87.2335 62.0522 87.5251 61.469 87.8432C60.8859 88.1613 60.5236 88.3557 60.3823 88.4263C57.8023 89.734 54.9837 90.8208 51.9266 91.6867C48.8695 92.5525 46.0863 92.9855 43.577 92.9855C40.2195 92.9855 37.2684 92.7293 34.7238 92.2168C32.1791 91.7043 29.4048 90.8119 26.4007 89.5396C25.8706 89.2922 25.3316 89.0183 24.7838 88.7179C24.236 88.4175 23.6352 88.0817 22.9813 87.7107C22.3275 87.3396 21.8239 87.048 21.4704 86.8359L23.75 82.966ZM1.52588e-05 25.7645V82.966L41.0324 69.9247C41.5272 70.1367 48.1538 72.3898 60.9124 76.6839C73.671 80.978 80.1739 83.125 80.4213 83.125C80.8808 83.125 81.1989 82.8953 81.3756 82.4358C81.3756 82.4005 81.3932 82.3475 81.4286 82.2768V25.1283C81.3226 24.8103 81.2519 24.6336 81.2165 24.5982C81.0398 24.3862 80.6864 24.1918 80.1563 24.0151C76.3746 22.7427 73.7416 21.8592 72.2573 21.3644V1.00725L42.6758 11.5039C42.6051 11.5039 39.7689 10.532 34.1671 8.58817C28.5654 6.64434 22.9813 4.72703 17.4149 2.83622C11.8485 0.945405 8.99462 0 8.85325 0C8.14641 0 7.79298 0.371094 7.79298 1.11328V23.2729L1.52588e-05 25.7645Z" fill="#0361F0"/>
</svg>
